<svg width="40" height="40" viewBox="0 0 40 40" fill="none" xmlns="http://www.w3.org/2000/svg">
<path d="M32.6504 13.894L32.6425 13.8624C32.0036 11.2793 29.1229 8.5075 26.4775 7.93085L26.4476 7.9247C22.1688 7.10843 17.8303 7.10843 13.5523 7.9247L13.5216 7.93085C10.8771 8.5075 7.99641 11.2793 7.35656 13.8624L7.34953 13.894C6.5596 17.5014 6.5596 21.1597 7.34953 24.7671L7.35656 24.7987C7.96911 27.2715 10.6352 29.916 13.1819 30.6433V33.5267C13.1819 34.5703 14.4537 35.0829 15.177 34.3298L18.0984 31.293C18.732 31.3285 19.366 31.3483 20 31.3483C22.1539 31.3483 24.3087 31.1446 26.4476 30.7365L26.4775 30.7303C29.1229 30.1537 32.0036 27.3819 32.6425 24.7988L32.6504 24.7672C33.4404 21.1597 33.4404 17.5014 32.6504 13.894ZM30.3385 24.244C29.912 25.9292 27.7247 28.0243 25.9868 28.4113C23.7117 28.844 21.4186 29.0289 19.1278 28.9654C19.0822 28.9642 19.0384 28.9819 19.0067 29.0145C18.6816 29.3482 16.8736 31.2042 16.8736 31.2042L14.6047 33.5328C14.4388 33.7057 14.1474 33.5881 14.1474 33.3493V28.5727C14.1474 28.4938 14.0911 28.4267 14.0136 28.4115C14.0131 28.4114 14.0127 28.4113 14.0122 28.4113C12.2744 28.0242 10.088 25.9291 9.66055 24.2439C8.9496 20.9832 8.9496 17.6777 9.66055 14.417C10.088 12.7318 12.2744 10.6367 14.0122 10.2497C17.9856 9.49396 22.0143 9.49396 25.9868 10.2497C27.7256 10.6367 29.912 12.7318 30.3385 14.417C31.0503 17.6778 31.0503 20.9833 30.3385 24.244Z" fill="#17171A"/>
<path d="M23.7804 26.4492C23.5132 26.3681 23.2586 26.3136 23.0222 26.2154C20.5719 25.1989 18.3169 23.8874 16.5307 21.877C15.5149 20.7338 14.7199 19.4431 14.0478 18.0772C13.7291 17.4295 13.4605 16.7564 13.1868 16.0876C12.9372 15.4778 13.3048 14.8478 13.692 14.3883C14.0553 13.9571 14.5227 13.6271 15.029 13.3838C15.4242 13.194 15.8139 13.3034 16.1025 13.6384C16.7264 14.3625 17.2995 15.1236 17.7635 15.963C18.0489 16.4793 17.9706 17.1103 17.4534 17.4617C17.3277 17.5471 17.2132 17.6473 17.0961 17.7438C16.9934 17.8283 16.8968 17.9137 16.8264 18.0282C16.6977 18.2376 16.6916 18.4846 16.7744 18.7122C17.4122 20.4649 18.4871 21.8277 20.2511 22.5617C20.5334 22.6791 20.8169 22.8159 21.1421 22.778C21.6867 22.7143 21.863 22.117 22.2447 21.8049C22.6177 21.4999 23.0944 21.4958 23.4962 21.7501C23.8981 22.0045 24.2877 22.2775 24.675 22.5535C25.0551 22.8243 25.4336 23.0893 25.7842 23.3981C26.1213 23.695 26.2375 24.0845 26.0476 24.4875C25.7 25.2255 25.1943 25.8394 24.4648 26.2313C24.2588 26.3418 24.0127 26.3776 23.7804 26.4492C24.0127 26.3776 23.5132 26.368 23.7804 26.4492Z" fill="#17171A"/>
<path d="M20.0066 12.5394C23.2116 12.6292 25.844 14.7562 26.4081 17.9247C26.5042 18.4646 26.5384 19.0166 26.5811 19.5645C26.5991 19.795 26.4686 20.014 26.2199 20.017C25.963 20.0201 25.8474 19.8051 25.8307 19.5747C25.7977 19.1187 25.7748 18.6606 25.7119 18.2083C25.3802 15.8208 23.4764 13.8456 21.1 13.4218C20.7424 13.358 20.3764 13.3412 20.0142 13.3032C19.7852 13.2792 19.4853 13.2653 19.4346 12.9806C19.392 12.742 19.5934 12.552 19.8207 12.5398C19.8825 12.5363 19.9446 12.5392 20.0066 12.5394C23.2116 12.6292 19.9446 12.5392 20.0066 12.5394Z" fill="#17171A"/>
<path d="M24.8773 18.8533C24.872 18.8933 24.8692 18.9874 24.8458 19.0761C24.7608 19.3978 24.2729 19.4381 24.1606 19.1134C24.1273 19.017 24.1223 18.9074 24.1221 18.8036C24.121 18.1248 23.9734 17.4467 23.6311 16.8561C23.2793 16.249 22.7417 15.7387 22.1111 15.43C21.7298 15.2433 21.3175 15.1272 20.8996 15.0581C20.717 15.0279 20.5324 15.0095 20.3489 14.984C20.1264 14.9531 20.0077 14.8114 20.0182 14.5922C20.0281 14.3868 20.1781 14.2391 20.402 14.2517C21.1375 14.2935 21.8479 14.4525 22.5018 14.7987C23.8315 15.5029 24.5911 16.6144 24.8128 18.0986C24.8228 18.1659 24.839 18.2325 24.844 18.3C24.8566 18.4667 24.8645 18.6335 24.8773 18.8533C24.872 18.8933 24.8645 18.6335 24.8773 18.8533Z" fill="#17171A"/>
<path d="M22.8838 18.7758C22.6157 18.7806 22.4722 18.6322 22.4445 18.3863C22.4253 18.2149 22.4101 18.0412 22.3692 17.8745C22.2886 17.546 22.1141 17.2416 21.8378 17.0404C21.7073 16.9453 21.5595 16.8761 21.4047 16.8314C21.208 16.7746 21.0038 16.7902 20.8075 16.7421C20.5944 16.6899 20.4765 16.5174 20.51 16.3174C20.5405 16.1355 20.7175 15.9934 20.9163 16.0078C22.1589 16.0975 23.047 16.7399 23.1737 18.2027C23.1827 18.3059 23.1932 18.415 23.1703 18.5138C23.1311 18.6828 23.0059 18.7675 22.8838 18.7758C23.0059 18.7675 22.6157 18.7806 22.8838 18.7758Z" fill="#17171A"/>
</svg>
