<svg xmlns="http://www.w3.org/2000/svg" viewBox="0 0 40 40" fill="none">
<path d="M6.01178 34.0039L7.97109 27.045C6.71114 24.9045 6.04777 22.4692 6.04777 19.9673C6.04777 12.2641 12.3148 5.99707 20.018 5.99707C27.7213 5.99707 33.9882 12.2641 33.9882 19.9673C33.9882 27.6706 27.7213 33.9376 20.018 33.9376C17.6177 33.9376 15.2674 33.3232 13.1882 32.1565L6.01178 34.0039ZM13.5551 29.615L13.9827 29.8761C15.7955 30.9828 17.8826 31.5678 20.018 31.5678C26.4145 31.5678 31.6184 26.3638 31.6184 19.9673C31.6184 13.5708 26.4145 8.36689 20.018 8.36689C13.6215 8.36689 8.41758 13.5708 8.41758 19.9673C8.41758 22.1961 9.05103 24.3604 10.2493 26.2264L10.5373 26.6748L9.40896 30.6822L13.5551 29.615Z" fill="#17171A"/>
<path d="M16.0936 13.4651L15.1871 13.4157C14.9023 13.4002 14.623 13.4953 14.4078 13.6823C13.9684 14.0639 13.2657 14.8017 13.0498 15.7631C12.728 17.1967 13.2254 18.9521 14.5127 20.7075C15.8001 22.463 18.1991 25.2716 22.4413 26.4712C23.8084 26.8577 24.8837 26.5972 25.7134 26.0664C26.3706 25.6461 26.8236 24.9714 26.9868 24.2086L27.1316 23.5326C27.1776 23.3178 27.0685 23.0997 26.8689 23.0078L23.8052 21.5956C23.6063 21.504 23.3705 21.5619 23.2367 21.7353L22.034 23.2944C21.9431 23.4122 21.7876 23.4589 21.6472 23.4096C20.8235 23.1201 18.0645 21.9646 16.5507 19.0485C16.485 18.922 16.5013 18.7685 16.5945 18.6606L17.7439 17.3309C17.8614 17.1951 17.891 17.0042 17.8205 16.8392L16.4998 13.7496C16.4295 13.5851 16.272 13.4749 16.0936 13.4651Z" fill="#17171A"/>
</svg>
