<?xml version="1.0" encoding="iso-8859-1"?>
<!-- Uploaded to: SVG Repo, www.svgrepo.com, Generator: SVG Repo Mixer Tools -->
<svg version="1.1" id="Layer_1" xmlns="http://www.w3.org/2000/svg" xmlns:xlink="http://www.w3.org/1999/xlink" 
	 viewBox="0 0 393.309 393.309" xml:space="preserve">
<circle style="fill:#4957B8;" cx="196.655" cy="196.655" r="196.655"/>
<path style="fill:#4F5565;" d="M362.085,198.982c-6.594-38.141-32-46.545-32.194-46.61l1.745-5.818
	c1.164,0.388,29.156,9.568,36.396,51.329L362.085,198.982z"/>
<g>
	<path style="fill:#DEDEDF;" d="M80.679,144.356c0,0-19.071,42.343-12.994,69.301c6.077,26.958-20.622,75.895-38.917,68.202v15.321
		c0,0,63.418-12.994,82.554-76.412c0,0,16.679-21.398,43.442,13.77v94.707h52.752v-82.489h50.877v82.554h51.523
		c0,0,58.053-89.406,32.84-158.966c0,0-15.321-61.091-75.636-76.412s-147.459,6.077-162.715,19.846
		C89.083,127.483,80.679,144.356,80.679,144.356z"/>
	<path style="fill:#DEDEDF;" d="M165.56,217.147c0,0-43.507,15.192-43.184,38.853l-11.895-41.568l26.44-11.507L165.56,217.147z"/>
</g>
<g>
	<path style="fill:#FFFFFF;" d="M196.202,313.018c-3.62,0-6.788,1.681-8.857,4.331c-2.069-2.65-5.236-4.331-8.857-4.331
		s-6.788,1.681-8.857,4.331c-2.069-2.65-5.236-4.331-8.857-4.331c-6.335,0-11.442,5.107-11.442,11.442
		c0,1.681,0.388,3.297,1.099,4.784h17.778h3.038h14.739h3.038h17.778c0.711-1.487,1.099-3.103,1.099-4.784
		C207.644,318.125,202.473,313.018,196.202,313.018z"/>
	<path style="fill:#FFFFFF;" d="M301.059,313.018c-3.62,0-6.788,1.681-8.857,4.331c-2.069-2.65-5.236-4.331-8.857-4.331
		c-3.62,0-6.788,1.681-8.857,4.331c-2.069-2.65-5.236-4.331-8.857-4.331c-6.335,0-11.442,5.107-11.442,11.442
		c0,1.681,0.388,3.297,1.099,4.784h17.649h3.038h14.739h3.038h17.778c0.711-1.487,1.099-3.103,1.099-4.784
		C312.501,318.125,307.394,313.018,301.059,313.018z"/>
</g>
<path style="fill:#FBD303;" d="M296.275,106.537v73.632H198.4V89.471c-5.107,0.388-10.214,0.84-15.127,1.422v105.115h129.228
	v-76.477C307.782,114.877,302.352,110.481,296.275,106.537z"/>
<path style="fill:#F0582F;" d="M296.275,180.17v-73.632c-8.275-5.301-17.907-9.826-29.156-12.671
	c-21.01-5.301-45.253-6.077-68.59-4.396v90.699H296.275z"/>
<g>
	<path style="fill:#F1F3F7;" d="M111.192,220.768c0,0-22.95,41.244-48.226,41.891c0,0,51.911,7.822,66.327-48.162L111.192,220.768z"
		/>
	<path style="fill:#F1F3F7;" d="M144.679,112.485c0,0,41.115-16.356,45.446,16.937c4.331,33.293-38.659,103.693-50.683,97.875
		c-12.024-5.818-17.002-59.281-17.002-59.281L144.679,112.485z"/>
</g>
<circle style="fill:#4F5565;" cx="106.473" cy="187.992" r="4.073"/>
<path style="fill:#BDBDBE;" d="M362.02,198.4c0,0-7.822,5.042-2.392,17.648c5.43,12.606,23.402,18.489,23.402,18.489
	s-7.628-8.145-6.788-16.485s-0.711-15.968-7.952-20.428L362.02,198.4z"/>
<path style="fill:#333842;" d="M105.18,50.618L62.384,75.636c-3.814,2.263-5.107,7.111-2.844,10.925l29.543,50.554l56.63-33.099
	L116.17,53.463C113.842,49.713,108.929,48.356,105.18,50.618z"/>
<rect x="107.604" y="82.222" transform="matrix(-0.5043 -0.8635 0.8635 -0.5043 72.196 271.436)" style="fill:#BDBDBE;" width="12.8" height="65.55"/>
<path style="fill:#333842;" d="M162.715,81.648c-26.44,30.448-62.19,51.329-101.689,59.41c-1.939,0.388-3.232,2.133-2.844,4.073
	c0.323,1.875,2.263,3.103,4.267,2.715c40.986-8.404,78.028-30.061,105.568-61.673c1.293-1.552,1.228-3.814-0.259-5.042
	C166.271,79.903,164.073,80.226,162.715,81.648z"/>
</svg>