<svg viewBox="0 0 483 308">
<path id="arc" d="M169.599,76.8506h-54.399C51.5768,76.8506,0,128.461,0,192.126s51.5768,115.276,115.2,115.276h54.399v-51.234h-54.399c-35.3462,0-64-28.672-64-64.042c0-35.369,28.6538-64.042,64-64.042h54.399v-51.2334Z" fill="#fff"/>
<path id="round" d="M99.2014,192.127c0-17.685,14.3266-32.021,31.9996-32.021c17.674,0,32,14.336,32,32.021s-14.326,32.021-32,32.021c-17.673,0-31.9996-14.336-31.9996-32.021Z" fill="#fff"/>
<g id="triangle"><path d="M409.6,209.738L208,307.402h-.001v-56.921l122.83-59.505-122.83-57.554v-56.5714h.001L409.6,171.313v38.425Z" fill="#fff"/>
<path d="M207.999,76.8506l51.2,24.0154v182.52l-51.2,24.016v-230.5514Z" fill="#fff"/>
</g>
<path id="rectangle" d="M430.932,34.1567h51.2v273.2463h-51.2v-273.2463Z" fill="#fff"/></svg>
